<svg width="18" height="25" viewBox="0 0 18 25" fill="none" xmlns="http://www.w3.org/2000/svg">
<path d="M12.4537 0.856445C15.5025 0.856445 17.9662 2.145 18 5.42059V23.7013C18 23.906 17.955 24.1107 17.865 24.2913C17.7188 24.5804 17.4713 24.7971 17.1675 24.8935C16.875 24.9898 16.5487 24.9416 16.2787 24.773L8.98875 20.8712L1.6875 24.773C1.51988 24.8682 1.3275 24.9296 1.13625 24.9296C0.50625 24.9296 0 24.3756 0 23.7013V5.42059C0 2.145 2.475 0.856445 5.5125 0.856445H12.4537ZM13.2188 8.13017H4.7475C4.26375 8.13017 3.87 8.55166 3.87 9.08154C3.87 9.61021 4.26375 10.0329 4.7475 10.0329H13.2188C13.7025 10.0329 14.0962 9.61021 14.0962 9.08154C14.0962 8.55166 13.7025 8.13017 13.2188 8.13017Z" fill="#D37272"/>
</svg>
