<svg width="24" height="24" viewBox="0 0 24 24" fill="none" xmlns="http://www.w3.org/2000/svg">
<rect width="24" height="24" fill="white"/>
<g clip-path="url(#clip0_552_112)">
<path fill-rule="evenodd" clip-rule="evenodd" d="M19.85 13H16.7C14.9602 13 13.55 14.343 13.55 16V19C13.55 20.657 14.9602 22 16.7 22H19.85C21.5898 22 23 20.657 23 19V16C23 14.343 21.5898 13 19.85 13ZM8.3 13H5.15C3.41015 13 2 14.343 2 16V19C2 20.657 3.41015 22 5.15 22H8.3C10.0398 22 11.45 20.657 11.45 19V16C11.45 14.343 10.0398 13 8.3 13ZM19.85 2H16.7C14.9602 2 13.55 3.343 13.55 5V8C13.55 9.657 14.9602 11 16.7 11H19.85C21.5898 11 23 9.657 23 8V5C23 3.343 21.5898 2 19.85 2ZM11.45 5V8C11.45 9.657 10.0398 11 8.3 11H5.15C3.41015 11 2 9.657 2 8V5C2 3.343 3.41015 2 5.15 2H8.3C10.0398 2 11.45 3.343 11.45 5Z" fill="#C90000"/>
</g>
<defs>
<clipPath id="clip0_552_112">
<rect width="21" height="20" fill="white" transform="translate(2 2)"/>
</clipPath>
</defs>
</svg>
