<svg width="24" height="24" viewBox="0 0 24 24" fill="none" xmlns="http://www.w3.org/2000/svg">
<path d="M19.5 16.5H4.5C2.85 16.5 1.5 15.15 1.5 13.5V6C1.5 4.35 2.85 3 4.5 3H19.5C21.15 3 22.5 4.35 22.5 6V13.5C22.5 15.15 21.15 16.5 19.5 16.5Z" stroke="#D37272" stroke-width="2" stroke-miterlimit="10" stroke-linecap="round" stroke-linejoin="round"/>
<path d="M2.25 20.25H5.25" stroke="#D37272" stroke-width="2" stroke-miterlimit="10" stroke-linecap="round" stroke-linejoin="round"/>
<path d="M8.25 20.25H21.75" stroke="#D37272" stroke-width="2" stroke-miterlimit="10" stroke-linecap="round" stroke-linejoin="round"/>
<path d="M6.75 21.75C7.57843 21.75 8.25 21.0784 8.25 20.25C8.25 19.4216 7.57843 18.75 6.75 18.75C5.92157 18.75 5.25 19.4216 5.25 20.25C5.25 21.0784 5.92157 21.75 6.75 21.75Z" stroke="#D37272" stroke-width="2" stroke-miterlimit="10" stroke-linecap="round" stroke-linejoin="round"/>
<path d="M9.75 7.49999V12C9.75 12.525 10.425 12.9 10.875 12.6L14.625 10.35C15.075 10.05 15.075 9.44999 14.625 9.14999L10.875 6.89999C10.425 6.52499 9.75 6.89999 9.75 7.49999Z" stroke="#D37272" stroke-width="2" stroke-miterlimit="10" stroke-linecap="round" stroke-linejoin="round"/>
</svg>
